# xmcd
# 
# Track frame offsets:
#     150
#     19050
#     35832
#     55022
#     70295
#     81820
#     94372
#     115252
#     135667
#     148357
#     164915
#     181100
#     195587
#     209105
#     224857
#     239115
#     252300
#     263917
# 
# Disc length: 3743
# 
# Revision: 1
# Processed by: cddbd v1.5.2PL0 Copyright (c) Steve Scherf et al.
# Submitted via: BonkEnc v1.0
# 
DISCID=2b0e9d12
DTITLE=Diversos - Nas Trilhas da Paixão
DYEAR=0
DGENRE=Jazz
TTITLE0=As time goes by
TTITLE1=Love is a many splendorous thing
TTITLE2=Love story
TTITLE3=Moonlight serenade
TTITLE4=You are the love of my life
TTITLE5=Only you
TTITLE6=My way
TTITLE7=Endless love
TTITLE8=Love me tender
TTITLE9=Unchained melody
TTITLE10=Unforgettable
TTITLE11=La vie en rose
TTITLE12=Stand by me
TTITLE13=Blue moon
TTITLE14=Begin the beguine
TTITLE15=When a man loves a woman
TTITLE16=Summertime
TTITLE17=Someone to watch over me
EXTD=
EXTT0=
EXTT1=
EXTT2=
EXTT3=
EXTT4=
EXTT5=
EXTT6=
EXTT7=
EXTT8=
EXTT9=
EXTT10=
EXTT11=
EXTT12=
EXTT13=
EXTT14=
EXTT15=
EXTT16=
EXTT17=
PLAYORDER=
